<svg xmlns="http://www.w3.org/2000/svg" viewBox="0 0 600 600">
  <defs>
    <linearGradient id="bg1" x1="0%" y1="0%" x2="100%" y2="100%">
      <stop offset="0%" style="stop-color:#f5f0e8"/>
      <stop offset="100%" style="stop-color:#ebe4d6"/>
    </linearGradient>
    <linearGradient id="box1" x1="0%" y1="0%" x2="100%" y2="100%">
      <stop offset="0%" style="stop-color:#8B2035"/>
      <stop offset="100%" style="stop-color:#6B1525"/>
    </linearGradient>
    <linearGradient id="gold1" x1="0%" y1="0%" x2="100%" y2="100%">
      <stop offset="0%" style="stop-color:#D4B86A"/>
      <stop offset="100%" style="stop-color:#C8A84E"/>
    </linearGradient>
  </defs>
  <rect width="600" height="600" fill="url(#bg1)"/>
  <ellipse cx="300" cy="520" rx="280" ry="30" fill="#e8e0d0" opacity="0.5"/>
  <circle cx="120" cy="450" r="8" fill="#9B2335" opacity="0.6"/>
  <circle cx="140" cy="440" r="6" fill="#fff" opacity="0.7"/>
  <circle cx="480" cy="430" r="7" fill="#9B2335" opacity="0.5"/>
  <circle cx="460" cy="420" r="10" fill="#fff" opacity="0.6"/>
  <rect x="200" y="350" width="80" height="8" rx="4" fill="#d4c8b0"/>
  <rect x="228" y="358" width="24" height="50" rx="3" fill="#c8bca4"/>
  <ellipse cx="240" cy="410" rx="40" ry="8" fill="#c8bca4"/>
  <rect x="180" y="200" width="140" height="150" rx="4" fill="url(#box1)"/>
  <rect x="185" y="205" width="130" height="140" rx="2" stroke="url(#gold1)" stroke-width="2" fill="none"/>
  <rect x="175" y="192" width="150" height="14" rx="3" fill="#7A1B2D"/>
  <path d="M220 260 Q250 220 280 260" stroke="#D4B86A" stroke-width="1.5" fill="none"/>
  <circle cx="250" cy="270" r="12" stroke="#D4B86A" stroke-width="1" fill="none"/>
  <circle cx="250" cy="270" r="4" fill="#D4B86A"/>
  <text x="250" y="310" text-anchor="middle" fill="#D4B86A" font-family="serif" font-size="14" font-weight="bold">HAPPY</text>
  <text x="250" y="328" text-anchor="middle" fill="#D4B86A" font-family="serif" font-size="12">WEDDING</text>
  <rect x="340" y="260" width="120" height="130" rx="4" fill="url(#box1)"/>
  <rect x="345" y="265" width="110" height="120" rx="2" stroke="url(#gold1)" stroke-width="1.5" fill="none"/>
  <rect x="335" y="253" width="130" height="12" rx="3" fill="#7A1B2D"/>
  <path d="M375 310 Q400 280 425 310" stroke="#D4B86A" stroke-width="1" fill="none"/>
  <circle cx="400" cy="318" r="8" stroke="#D4B86A" stroke-width="1" fill="none"/>
  <circle cx="400" cy="318" r="3" fill="#D4B86A"/>
  <text x="400" y="352" text-anchor="middle" fill="#D4B86A" font-family="serif" font-size="11" font-weight="bold">HAPPY</text>
  <text x="400" y="366" text-anchor="middle" fill="#D4B86A" font-family="serif" font-size="9">WEDDING</text>
  <path d="M100 380 Q120 360 130 380 Q120 370 100 380Z" fill="#5a7a4a" opacity="0.6"/>
  <path d="M500 360 Q520 340 530 360 Q520 350 500 360Z" fill="#5a7a4a" opacity="0.5"/>
  <ellipse cx="431" cy="175" rx="20" ry="30" fill="#e8e8e8" opacity="0.3" stroke="#d4d4d4" stroke-width="0.5"/>
  <rect x="430" y="180" width="2" height="60" fill="#d4d4d4" opacity="0.5"/>
  <rect x="420" y="240" width="22" height="3" rx="1" fill="#d4d4d4" opacity="0.5"/>
</svg>
