<svg xmlns="http://www.w3.org/2000/svg" viewBox="0 0 600 600">
  <defs>
    <linearGradient id="bg3" x1="0%" y1="0%" x2="100%" y2="100%">
      <stop offset="0%" style="stop-color:#f2efe8"/>
      <stop offset="100%" style="stop-color:#eae6dc"/>
    </linearGradient>
    <linearGradient id="greenbox3" x1="0%" y1="0%" x2="100%" y2="100%">
      <stop offset="0%" style="stop-color:#4A6B3A"/>
      <stop offset="100%" style="stop-color:#3A5A2A"/>
    </linearGradient>
    <linearGradient id="gold3" x1="0%" y1="0%" x2="100%" y2="100%">
      <stop offset="0%" style="stop-color:#D4B86A"/>
      <stop offset="100%" style="stop-color:#C8A84E"/>
    </linearGradient>
  </defs>
  <rect width="600" height="600" fill="url(#bg3)"/>
  <polygon points="300,0 350,200 250,200" fill="#fff" opacity="0.08"/>
  <ellipse cx="300" cy="530" rx="280" ry="30" fill="#e0d8c8" opacity="0.4"/>
  <rect x="380" y="350" width="70" height="6" rx="3" fill="#c8bca4"/>
  <rect x="407" y="356" width="16" height="45" rx="2" fill="#bab0a0"/>
  <ellipse cx="415" cy="405" rx="30" ry="6" fill="#bab0a0"/>
  <rect x="140" y="260" width="160" height="170" rx="5" fill="url(#greenbox3)"/>
  <rect x="146" y="266" width="148" height="158" rx="3" stroke="url(#gold3)" stroke-width="2" fill="none"/>
  <rect x="134" y="250" width="172" height="16" rx="4" fill="#3A5A2A"/>
  <path d="M180 320 Q220 275 260 320" stroke="#D4B86A" stroke-width="2" fill="none"/>
  <circle cx="220" cy="335" r="16" stroke="#D4B86A" stroke-width="1.5" fill="none"/>
  <circle cx="220" cy="335" r="6" fill="#D4B86A"/>
  <text x="220" y="400" text-anchor="middle" fill="#D4B86A" font-family="serif" font-size="14" font-weight="bold">HAPPY</text>
  <text x="220" y="418" text-anchor="middle" fill="#D4B86A" font-family="serif" font-size="11" letter-spacing="2">WEDDING</text>
  <rect x="320" y="200" width="130" height="140" rx="4" fill="url(#greenbox3)" opacity="0.9"/>
  <rect x="325" y="205" width="120" height="130" rx="2" stroke="url(#gold3)" stroke-width="1.5" fill="none"/>
  <rect x="315" y="192" width="140" height="14" rx="3" fill="#3A5A2A"/>
  <path d="M355 250 Q385 220 415 250" stroke="#D4B86A" stroke-width="1" fill="none"/>
  <circle cx="385" cy="258" r="10" stroke="#D4B86A" stroke-width="1" fill="none"/>
  <circle cx="385" cy="258" r="4" fill="#D4B86A"/>
  <text x="385" y="298" text-anchor="middle" fill="#D4B86A" font-family="serif" font-size="11" font-weight="bold">HAPPY</text>
  <text x="385" y="312" text-anchor="middle" fill="#D4B86A" font-family="serif" font-size="8" letter-spacing="1">WEDDING</text>
  <ellipse cx="350" cy="500" rx="18" ry="10" fill="#7aa060" opacity="0.4" transform="rotate(-20 350 500)"/>
  <ellipse cx="160" cy="480" rx="12" ry="7" fill="#7aa060" opacity="0.3" transform="rotate(15 160 480)"/>
  <ellipse cx="280" cy="490" rx="6" ry="9" fill="#9B2335" opacity="0.4" transform="rotate(30 280 490)"/>
  <ellipse cx="420" cy="480" rx="5" ry="8" fill="#9B2335" opacity="0.35" transform="rotate(-20 420 480)"/>
</svg>
